<?xml version="1.0" encoding="iso-8859-1"?>
<!-- Generator: Adobe Illustrator 19.0.0, SVG Export Plug-In . SVG Version: 6.00 Build 0)  -->
<svg version="1.1" id="Layer_1" xmlns="http://www.w3.org/2000/svg" xmlns:xlink="http://www.w3.org/1999/xlink" x="0px" y="0px"
	 viewBox="0 0 511.999 511.999" style="enable-background:new 0 0 511.999 511.999;" xml:space="preserve">
<path style="fill:#F2A7BB;" d="M270.516,511.999c-0.767-0.129-1.55-0.197-2.351-0.197h2.274
	C270.465,511.87,270.491,511.94,270.516,511.999z"/>
<path style="fill:#ECF1F8;" d="M462.572,50.458h-28.373v36.493c0,7.704-6.248,13.953-13.953,13.953
	c-7.707,0-13.954-6.248-13.954-13.953V50.458h-28.601v36.493c0,7.704-6.247,13.953-13.954,13.953
	c-7.705,0-13.953-6.248-13.953-13.953V50.458h-187.49v36.493c0,7.704-6.247,13.953-13.953,13.953
	c-7.707,0-13.954-6.248-13.954-13.953V50.458h-28.601v36.493c0,7.704-6.247,13.953-13.954,13.953
	c-7.704,0-13.953-6.248-13.953-13.953V50.458H49.507c-6.28,0-11.369,5.091-11.369,11.369c0,13.791,0,348.109,0,362.619
	c0,6.278,5.09,11.369,11.369,11.369c13.48,0,53.862,0,67.158,0h345.906c6.279,0,11.369-5.091,11.369-11.369
	c0-16.859,0-345.33,0-362.619C473.94,55.549,468.851,50.458,462.572,50.458z"/>
<path style="fill:#F2F7FC;" d="M462.572,50.458h-28.373v36.493c0,7.704-6.248,13.953-13.953,13.953
	c-7.707,0-13.954-6.248-13.954-13.953V50.458h-28.601v36.493c0,7.704-6.247,13.953-13.954,13.953
	c-7.705,0-13.953-6.248-13.953-13.953V50.458h-90.047c-24.78,140.637,75.782,269.774,214.203,283.798c0-9.194,0-263.252,0-272.43
	C473.94,55.549,468.851,50.458,462.572,50.458z"/>
<g>
	<path style="fill:#AFCBD8;" d="M76.157,434.864h-26.65c-6.281,0-11.369-5.079-11.369-11.341V133.316h26.65v290.207
		C64.788,429.785,69.875,434.864,76.157,434.864z"/>
	<path style="fill:#AFCBD8;" d="M76.157,50.458c-6.281,0-11.369,5.078-11.369,11.339v71.519h-26.65
		c0-78.098-0.469-72.66,0.891-75.923c0,0,0,0,0-0.01c1.049-2.412,2.661-4.129,4.813-5.419
		C47.645,49.791,48.627,50.458,76.157,50.458z"/>
</g>
<path style="fill:#FC3842;" d="M473.94,61.826v71.49H38.138c0-78.098-0.469-72.66,0.891-75.923c0,0,0,0,0-0.01
	c1.049-2.412,2.661-4.129,4.813-5.419c3.831-2.188,4.689-1.506,34.041-1.506v36.493c0,7.702,6.242,13.954,13.954,13.954
	c7.702,0,13.954-6.253,13.954-13.954V50.458h28.593v36.493c0,7.702,6.253,13.954,13.954,13.954c7.712,0,13.956-6.253,13.956-13.954
	V50.458h187.489v36.493c0,7.702,6.243,13.954,13.954,13.954c7.703,0,13.956-6.253,13.956-13.954V50.458h28.592v36.493
	c0,7.702,6.253,13.954,13.956,13.954c7.711,0,13.954-6.253,13.954-13.954V50.458h28.375C468.853,50.458,473.94,55.545,473.94,61.826
	z"/>
<path style="fill:#FC4F60;" d="M473.94,61.826v71.49H259.412c-4.603-27.323-4.496-55.514,0.322-82.858h90.05v36.493
	c0,7.702,6.243,13.954,13.954,13.954c7.703,0,13.956-6.253,13.956-13.954V50.458h28.592v36.493c0,7.702,6.253,13.954,13.956,13.954
	c7.711,0,13.954-6.253,13.954-13.954V50.458h28.375C468.853,50.458,473.94,55.545,473.94,61.826z"/>
<path style="fill:#C6122C;" d="M71.618,50.458c-4.017,1.752-6.83,5.76-6.83,10.42v72.438h-26.65c0-78.098-0.469-72.66,0.891-75.923
	c0,0,0,0,0-0.01c1.049-2.412,2.661-4.129,4.813-5.419C47.6,49.817,49.194,50.458,71.618,50.458z"/>
<g>
	<path style="fill:#FFCA54;" d="M105.787,86.951c0,7.704-6.247,13.953-13.954,13.953l0,0c-7.704,0-13.953-6.248-13.953-13.953
		V13.964c0-7.693,6.235-13.953,13.953-13.953c7.707,0,13.954,6.246,13.954,13.953V86.951z"/>
	<path style="fill:#FFCA54;" d="M162.294,86.951c0,7.704-6.247,13.953-13.953,13.953l0,0c-7.707,0-13.954-6.248-13.954-13.953
		V13.964c0-7.706,6.247-13.953,13.954-13.953l0,0c7.705,0,13.953,6.246,13.953,13.953V86.951z"/>
	<path style="fill:#FFCA54;" d="M377.69,86.951c0,7.704-6.247,13.953-13.954,13.953l0,0c-7.705,0-13.953-6.248-13.953-13.953V13.964
		c0-7.697,6.239-13.953,13.953-13.953c7.707,0,13.954,6.246,13.954,13.953V86.951z"/>
	<path style="fill:#FFCA54;" d="M434.198,86.951c0,7.704-6.248,13.953-13.953,13.953l0,0c-7.707,0-13.954-6.248-13.954-13.953
		V13.964c0-7.706,6.247-13.953,13.954-13.953l0,0c7.704,0,13.953,6.246,13.953,13.953V86.951z"/>
</g>
<g>
	<path style="fill:#F99830;" d="M92.405,86.951V13.964c0-5.042,2.683-9.445,6.691-11.897c-9.3-5.687-21.215,1.035-21.215,11.897
		v72.988c0,7.704,6.248,13.953,13.953,13.953c2.665,0,5.145-0.759,7.263-2.055C95.088,96.396,92.405,91.994,92.405,86.951z"/>
	<path style="fill:#F99830;" d="M148.913,86.951V13.964c0-5.042,2.683-9.445,6.692-11.897c-2.118-1.296-4.599-2.055-7.262-2.055
		c-7.707,0-13.954,6.246-13.954,13.953v72.988c0,10.856,11.918,17.587,21.216,11.897C151.596,96.396,148.913,91.994,148.913,86.951z
		"/>
	<path style="fill:#F99830;" d="M364.308,86.951V13.964c0-5.042,2.682-9.445,6.691-11.897c-9.299-5.687-21.216,1.035-21.216,11.897
		v72.988c0,7.704,6.248,13.953,13.953,13.953c2.664,0,5.145-0.759,7.263-2.055C366.991,96.396,364.308,91.994,364.308,86.951z"/>
	<path style="fill:#F99830;" d="M420.816,86.951V13.964c0-5.042,2.683-9.445,6.691-11.897c-2.117-1.296-4.598-2.055-7.261-2.055
		c-7.707,0-13.954,6.246-13.954,13.953v72.988c0,7.704,6.247,13.953,13.954,13.953c2.663,0,5.144-0.759,7.261-2.055
		C423.499,96.396,420.816,91.994,420.816,86.951z"/>
</g>
<path style="fill:#AFCBD8;" d="M134.693,225.372h-34.687c-6.095,0-11.037-4.942-11.037-11.037v-34.686
	c0-6.095,4.943-11.038,11.037-11.038h34.687c6.096,0,11.038,4.943,11.038,11.038v34.686
	C145.732,220.43,140.789,225.372,134.693,225.372"/>
<path style="fill:#9FB8C1;" d="M145.733,179.649v34.682c0,6.102-4.949,11.04-11.04,11.04h-11.825c6.093,0,11.04-4.938,11.04-11.04
	v-34.682c0-6.102-4.948-11.04-11.04-11.04h11.825C140.785,168.61,145.733,173.548,145.733,179.649z"/>
<path style="fill:#AFCBD8;" d="M227.703,225.372h-34.688c-6.094,0-11.036-4.942-11.036-11.037v-34.686
	c0-6.095,4.943-11.038,11.036-11.038h34.688c6.096,0,11.037,4.943,11.037,11.038v34.686
	C238.741,220.43,233.799,225.372,227.703,225.372"/>
<path style="fill:#9FB8C1;" d="M238.744,179.649v34.682c0,6.102-4.949,11.04-11.04,11.04h-11.826c6.093,0,11.04-4.938,11.04-11.04
	v-34.682c0-6.102-4.949-11.04-11.04-11.04h11.826C233.795,168.61,238.744,173.548,238.744,179.649z"/>
<path style="fill:#BDDAE5;" d="M320.713,225.372h-34.688c-6.095,0-11.036-4.942-11.036-11.037v-34.686
	c0-6.095,4.942-11.038,11.036-11.038h34.688c6.096,0,11.037,4.943,11.037,11.038v34.686
	C331.75,220.43,326.809,225.372,320.713,225.372"/>
<path style="fill:#AFCBD8;" d="M331.753,179.649v34.682c0,6.102-4.948,11.04-11.04,11.04h-11.826c6.093,0,11.04-4.938,11.04-11.04
	v-34.682c0-6.102-4.947-11.04-11.04-11.04h11.826C326.805,168.61,331.753,173.548,331.753,179.649z"/>
<path style="fill:#BDDAE5;" d="M413.722,225.372h-34.688c-6.095,0-11.037-4.942-11.037-11.037v-34.686
	c0-6.095,4.943-11.038,11.037-11.038h34.688c6.095,0,11.037,4.943,11.037,11.038v34.686
	C424.76,220.43,419.818,225.372,413.722,225.372"/>
<g>
	<path style="fill:#AFCBD8;" d="M424.763,179.649v34.682c0,6.102-4.949,11.04-11.04,11.04h-11.825c6.093,0,11.04-4.938,11.04-11.04
		v-34.682c0-6.102-4.948-11.04-11.04-11.04h11.825C419.814,168.61,424.763,173.548,424.763,179.649z"/>
	<path style="fill:#AFCBD8;" d="M134.693,310.914h-34.687c-6.095,0-11.037-4.943-11.037-11.037V265.19
		c0-6.095,4.943-11.037,11.037-11.037h34.687c6.096,0,11.038,4.942,11.038,11.037v34.687
		C145.732,305.971,140.789,310.914,134.693,310.914"/>
</g>
<path style="fill:#9FB8C1;" d="M145.733,265.193v34.681c0,6.102-4.949,11.04-11.04,11.04h-11.825c6.093,0,11.04-4.938,11.04-11.04
	v-34.681c0-6.103-4.948-11.04-11.04-11.04h11.825C140.785,254.152,145.733,259.091,145.733,265.193z"/>
<path style="fill:#FC3842;" d="M227.703,310.914h-34.688c-6.094,0-11.036-4.943-11.036-11.037V265.19
	c0-6.095,4.943-11.037,11.036-11.037h34.688c6.096,0,11.037,4.942,11.037,11.037v34.687
	C238.741,305.971,233.799,310.914,227.703,310.914"/>
<path style="fill:#EF2235;" d="M238.744,265.193v34.681c0,6.102-4.949,11.04-11.04,11.04h-11.826c6.093,0,11.04-4.938,11.04-11.04
	v-34.681c0-6.103-4.949-11.04-11.04-11.04h11.826C233.795,254.152,238.744,259.091,238.744,265.193z"/>
<path style="fill:#AFCBD8;" d="M320.713,310.914h-34.688c-6.095,0-11.036-4.943-11.036-11.037V265.19
	c0-6.095,4.942-11.037,11.036-11.037h34.688c6.096,0,11.037,4.942,11.037,11.037v34.687
	C331.75,305.971,326.809,310.914,320.713,310.914"/>
<path style="fill:#9FB8C1;" d="M331.753,265.193v34.681c0,6.102-4.948,11.04-11.04,11.04h-11.826c6.093,0,11.04-4.938,11.04-11.04
	v-34.681c0-6.103-4.947-11.04-11.04-11.04h11.826C326.805,254.152,331.753,259.091,331.753,265.193z"/>
<path style="fill:#BDDAE5;" d="M413.722,310.914h-34.688c-6.095,0-11.037-4.943-11.037-11.037V265.19
	c0-6.095,4.943-11.037,11.037-11.037h34.688c6.095,0,11.037,4.942,11.037,11.037v34.687
	C424.76,305.971,419.818,310.914,413.722,310.914"/>
<g>
	<path style="fill:#AFCBD8;" d="M424.763,265.193v34.681c0,6.102-4.949,11.04-11.04,11.04h-11.825c6.093,0,11.04-4.938,11.04-11.04
		v-34.681c0-6.103-4.948-11.04-11.04-11.04h11.825C419.814,254.152,424.763,259.091,424.763,265.193z"/>
	<path style="fill:#AFCBD8;" d="M134.693,396.457h-34.687c-6.095,0-11.037-4.943-11.037-11.037v-34.688
		c0-6.094,4.943-11.037,11.037-11.037h34.687c6.096,0,11.038,4.943,11.038,11.037v34.688
		C145.732,391.514,140.789,396.457,134.693,396.457"/>
</g>
<path style="fill:#9FB8C1;" d="M145.733,350.734v34.681c0,6.102-4.949,11.04-11.04,11.04h-11.825c6.093,0,11.04-4.939,11.04-11.04
	v-34.681c0-6.102-4.948-11.04-11.04-11.04h11.825C140.785,339.694,145.733,344.633,145.733,350.734z"/>
<path style="fill:#AFCBD8;" d="M227.703,396.457h-34.688c-6.094,0-11.036-4.943-11.036-11.037v-34.688
	c0-6.094,4.943-11.037,11.036-11.037h34.688c6.096,0,11.037,4.943,11.037,11.037v34.688
	C238.741,391.514,233.799,396.457,227.703,396.457"/>
<path style="fill:#9FB8C1;" d="M238.744,350.734v34.681c0,6.102-4.949,11.04-11.04,11.04h-11.826c6.093,0,11.04-4.939,11.04-11.04
	v-34.681c0-6.102-4.949-11.04-11.04-11.04h11.826C233.795,339.694,238.744,344.633,238.744,350.734z"/>
<path style="fill:#AFCBD8;" d="M320.713,396.457h-34.688c-6.095,0-11.036-4.943-11.036-11.037v-34.688
	c0-6.094,4.942-11.037,11.036-11.037h34.688c6.096,0,11.037,4.943,11.037,11.037v34.688
	C331.75,391.514,326.809,396.457,320.713,396.457"/>
<path style="fill:#9FB8C1;" d="M331.753,350.734v34.681c0,6.102-4.948,11.04-11.04,11.04h-11.826c6.093,0,11.04-4.939,11.04-11.04
	v-34.681c0-6.102-4.947-11.04-11.04-11.04h11.826C326.805,339.694,331.753,344.633,331.753,350.734z"/>
<path style="fill:#AFCBD8;" d="M413.722,396.457h-34.688c-6.095,0-11.037-4.943-11.037-11.037v-34.688
	c0-6.094,4.943-11.037,11.037-11.037h34.688c6.095,0,11.037,4.943,11.037,11.037v34.688
	C424.76,391.514,419.818,396.457,413.722,396.457"/>
<path style="fill:#9FB8C1;" d="M424.763,350.734v34.681c0,6.102-4.949,11.04-11.04,11.04h-11.825c6.093,0,11.04-4.939,11.04-11.04
	v-34.681c0-6.102-4.948-11.04-11.04-11.04h11.825C419.814,339.694,424.763,344.633,424.763,350.734z"/>
<g>
	<path style="fill:#AFCBD8;" d="M295.394,225.375h-9.37c-6.092,0-11.037-4.945-11.037-11.037v-27.314
		C280.652,200.468,287.502,213.295,295.394,225.375z"/>
	<path style="fill:#AFCBD8;" d="M331.756,265.193v3.752c-4.993-4.727-9.777-9.664-14.353-14.799h3.307
		C326.809,254.147,331.756,259.093,331.756,265.193z"/>
</g>
<path style="fill:#9FB8C1;" d="M331.756,268.947v30.931c0,6.102-4.946,11.038-11.046,11.038h-11.824
	c6.092,0,11.046-4.937,11.046-11.038v-34.684c0-6.101-4.956-11.046-11.046-11.046h8.517
	C321.978,259.283,326.762,264.219,331.756,268.947z"/>
<path style="fill:#AFCBD8;" d="M392.132,310.916H379.03c-6.093,0-11.027-4.945-11.027-11.038v-2.539
	C375.752,302.304,383.805,306.842,392.132,310.916z"/>
<g>
</g>
<g>
</g>
<g>
</g>
<g>
</g>
<g>
</g>
<g>
</g>
<g>
</g>
<g>
</g>
<g>
</g>
<g>
</g>
<g>
</g>
<g>
</g>
<g>
</g>
<g>
</g>
<g>
</g>
</svg>
