<?xml version="1.0" encoding="iso-8859-1"?>
<!-- Generator: Adobe Illustrator 19.0.0, SVG Export Plug-In . SVG Version: 6.00 Build 0)  -->
<svg version="1.1" id="Capa_1" xmlns="http://www.w3.org/2000/svg" xmlns:xlink="http://www.w3.org/1999/xlink" x="0px" y="0px"
	 viewBox="0 0 469.333 469.333" style="enable-background:new 0 0 469.333 469.333;" xml:space="preserve">
<path style="fill:#303C42;" d="M466.208,109.792L359.542,3.125c-2-2-4.708-3.125-7.542-3.125H42.667C19.135,0,0,19.135,0,42.667v384
	c0,23.531,19.135,42.667,42.667,42.667h384c23.531,0,42.667-19.135,42.667-42.667V117.333
	C469.333,114.5,468.208,111.792,466.208,109.792z"/>
<path style="fill:#E6E6E6;" d="M362.667,36.417l70.25,70.25H384c-11.76,0-21.333-9.573-21.333-21.333V36.417z"/>
<path style="fill:#FAFAFA;" d="M426.667,448h-384c-11.76,0-21.333-9.573-21.333-21.333v-384c0-11.76,9.573-21.333,21.333-21.333
	h298.667v64C341.333,108.865,360.469,128,384,128h64v298.667C448,438.427,438.427,448,426.667,448z"/>
<circle style="fill:#303C42;" cx="234.667" cy="160" r="74.667"/>
<circle style="fill:#0288D1;" cx="234.667" cy="160" r="53.333"/>
<path style="opacity:0.1;enable-background:new    ;" d="M265.348,116.517c0.819,3.708,1.319,7.533,1.319,11.483
	c0,29.406-23.927,53.333-53.333,53.333c-11.439,0-21.987-3.695-30.681-9.85c5.277,23.893,26.559,41.85,52.014,41.85
	C264.073,213.333,288,189.406,288,160C288,142.033,279.005,126.186,265.348,116.517z"/>
<path style="fill:#303C42;" d="M349.323,286.531C322.469,272.604,280.771,256,234.667,256s-87.802,16.604-114.656,30.531
	c-21.396,11.094-34.677,32.948-34.677,57.042v9.76C85.333,370.24,99.01,384,115.813,384h237.708C370.323,384,384,370.24,384,353.333
	v-9.76C384,319.479,370.719,297.625,349.323,286.531z"/>
<linearGradient id="SVGID_1_" gradientUnits="userSpaceOnUse" x1="-58.9377" y1="613.6965" x2="-47.5082" y2="602.266" gradientTransform="matrix(21.3333 0 0 -21.3333 1430.1112 13315.2227)">
	<stop  offset="0" style="stop-color:#000000;stop-opacity:0.1"/>
	<stop  offset="1" style="stop-color:#000000;stop-opacity:0"/>
</linearGradient>
<path style="fill:url(#SVGID_1_);" d="M288,107.813l-0.044,0.044c13.185,13.473,21.378,31.852,21.378,52.143
	c0,41.167-33.5,74.667-74.667,74.667c-20.292,0-38.671-8.193-52.143-21.378l-0.044,0.044L225.146,256l-0.436,0.432
	c3.313-0.169,6.594-0.432,9.957-0.432c46.104,0,87.802,16.604,114.656,30.531C370.719,297.625,384,319.479,384,343.573v9.76
	C384,370.24,370.323,384,353.521,384H115.813c-8.352,0-15.921-3.409-21.432-8.904L167.284,448h259.383
	c11.76,0,21.333-9.573,21.333-21.333V267.813L288,107.813z"/>
<path style="fill:#0288D1;" d="M362.667,353.333c0,5.146-4.104,9.333-9.146,9.333H115.813c-5.042,0-9.146-4.188-9.146-9.333v-9.76
	c0-16.094,8.875-30.698,23.156-38.104c24.76-12.833,63.042-28.135,104.844-28.135s80.083,15.302,104.844,28.135
	c14.281,7.406,23.156,22.01,23.156,38.104V353.333z"/>
<path style="opacity:0.1;enable-background:new    ;" d="M339.51,305.469c-19.289-9.997-46.831-21.396-77.805-25.988
	c17.322,6.607,32.684,14.796,44.84,22.355c14.876,9.258,24.121,27.513,24.121,47.63v12.201c0,0.354-0.139,0.654-0.165,1h23.02
	c5.042,0,9.146-4.188,9.146-9.333v-9.76C362.667,327.479,353.792,312.875,339.51,305.469z"/>
<linearGradient id="SVGID_2_" gradientUnits="userSpaceOnUse" x1="-49.4759" y1="619.6784" x2="-45.0804" y2="615.283" gradientTransform="matrix(21.3333 0 0 -21.3333 1430.1112 13315.2227)">
	<stop  offset="0" style="stop-color:#000000;stop-opacity:0.1"/>
	<stop  offset="1" style="stop-color:#000000;stop-opacity:0"/>
</linearGradient>
<path style="fill:url(#SVGID_2_);" d="M354.23,115.811l93.77,93.77V128h-64C372.415,128,361.926,123.328,354.23,115.811z"/>
<linearGradient id="SVGID_3_" gradientUnits="userSpaceOnUse" x1="-69.031" y1="618.317" x2="-43.7264" y2="606.5172" gradientTransform="matrix(21.3333 0 0 -21.3333 1430.1112 13315.2227)">
	<stop  offset="0" style="stop-color:#FFFFFF;stop-opacity:0.2"/>
	<stop  offset="1" style="stop-color:#FFFFFF;stop-opacity:0"/>
</linearGradient>
<path style="fill:url(#SVGID_3_);" d="M466.208,109.792L359.542,3.125c-2-2-4.708-3.125-7.542-3.125H42.667
	C19.135,0,0,19.135,0,42.667v384c0,23.531,19.135,42.667,42.667,42.667h384c23.531,0,42.667-19.135,42.667-42.667V117.333
	C469.333,114.5,468.208,111.792,466.208,109.792z"/>
<g>
</g>
<g>
</g>
<g>
</g>
<g>
</g>
<g>
</g>
<g>
</g>
<g>
</g>
<g>
</g>
<g>
</g>
<g>
</g>
<g>
</g>
<g>
</g>
<g>
</g>
<g>
</g>
<g>
</g>
</svg>
