<?xml version="1.0" encoding="iso-8859-1"?>
<!-- Generator: Adobe Illustrator 19.0.0, SVG Export Plug-In . SVG Version: 6.00 Build 0)  -->
<svg version="1.1" id="Layer_1" xmlns="http://www.w3.org/2000/svg" xmlns:xlink="http://www.w3.org/1999/xlink" x="0px" y="0px"
	 viewBox="0 0 512 512" style="enable-background:new 0 0 512 512;" xml:space="preserve">
<path style="fill:#F2F2F2;" d="M471.917,109.027H40.084C17.981,109.027,0,127.008,0,149.111v286.463
	c0,22.103,17.981,40.083,40.084,40.083h431.833c22.103,0,40.083-17.981,40.083-40.083V149.111
	C512,127.008,494.019,109.027,471.917,109.027z"/>
<path style="fill:#E5E5E5;" d="M0,149.111v286.463c0,22.103,17.981,40.083,40.084,40.083h361.731L37.697,109.104
	C16.701,110.344,0,127.811,0,149.111z"/>
<g>
	<path style="fill:#999999;" d="M428.092,231.95H248.518c-4.427,0-8.017-3.588-8.017-8.017s3.589-8.017,8.017-8.017h179.574
		c4.427,0,8.017,3.588,8.017,8.017S432.519,231.95,428.092,231.95z"/>
	<path style="fill:#999999;" d="M428.092,197.745H248.518c-4.427,0-8.017-3.588-8.017-8.017s3.589-8.017,8.017-8.017h179.574
		c4.427,0,8.017,3.588,8.017,8.017S432.519,197.745,428.092,197.745z"/>
	<path style="fill:#999999;" d="M428.092,430.764H86.046c-4.427,0-8.017-3.588-8.017-8.017s3.589-8.017,8.017-8.017h342.046
		c4.427,0,8.017,3.588,8.017,8.017S432.519,430.764,428.092,430.764z"/>
</g>
<path style="fill:#FF7452;" d="M304.788,39.079c-1.522-1.739-3.721-2.736-6.032-2.736h-85.511c-2.311,0-4.51,0.997-6.032,2.736
	c-1.522,1.739-2.22,4.05-1.914,6.341l12.827,96.2c0.531,3.983,3.928,6.957,7.946,6.957h59.858c4.018,0,7.416-2.975,7.946-6.957
	l12.827-96.2C307.008,43.129,306.31,40.818,304.788,39.079z"/>
<path style="fill:#E24642;" d="M212.282,97.804l5.843,43.815c0.531,3.983,3.928,6.957,7.946,6.957h59.858
	c4.018,0,7.416-2.975,7.946-6.957l5.843-43.815H212.282z"/>
<path style="fill:#5AC779;" d="M336.167,256.534c-37.426,0-67.875,30.448-67.875,67.875s30.449,67.875,67.875,67.875
	s67.875-30.448,67.875-67.875S373.593,256.534,336.167,256.534z"/>
<path style="fill:#00A085;" d="M363.958,364.493c-37.426,0-67.875-30.448-67.875-67.875c0-11.577,2.92-22.483,8.053-32.03
	c-21.317,11.459-35.844,33.974-35.844,59.822c0,37.426,30.449,67.875,67.875,67.875c25.849,0,48.363-14.528,59.822-35.844
	C386.441,361.572,375.535,364.493,363.958,364.493z"/>
<path style="fill:#AFF078;" d="M331.894,347.39c-2.194,0-4.379-0.897-5.961-2.653l-19.24-21.378
	c-2.962-3.291-2.695-8.36,0.596-11.322c3.291-2.962,8.36-2.696,11.322,0.595l13.951,15.502l28.255-24.724
	c3.332-2.915,8.397-2.578,11.312,0.755c2.916,3.332,2.578,8.396-0.755,11.312l-34.205,29.929
	C335.651,346.737,333.768,347.39,331.894,347.39z"/>
<path style="fill:#FFD652;" d="M143.766,179.574c-27.995,0-50.772,22.777-50.772,50.772s22.777,50.772,50.772,50.772
	s50.772-22.777,50.772-50.772S171.762,179.574,143.766,179.574z"/>
<path style="fill:#FB9D46;" d="M119.182,230.347c0-23.469,16.01-43.261,37.678-49.052c-4.179-1.117-8.567-1.721-13.094-1.721
	c-27.995,0-50.772,22.777-50.772,50.772s22.777,50.772,50.772,50.772c4.527,0,8.915-0.604,13.094-1.721
	C135.192,273.608,119.182,253.815,119.182,230.347z"/>
<path style="fill:#FFD652;" d="M169.42,275.775h-51.307c-22.103,0-40.084,17.981-40.084,40.083v68.409
	c0,4.428,3.589,8.017,8.017,8.017h115.441c4.427,0,8.017-3.588,8.017-8.017v-68.409C209.503,293.755,191.522,275.775,169.42,275.775
	z"/>
<path style="fill:#FB9D46;" d="M104.217,384.267v-68.409c0-22.103,17.981-40.083,40.084-40.083h-26.188
	c-22.103,0-40.084,17.981-40.084,40.083v68.409c0,4.428,3.589,8.017,8.017,8.017h26.188
	C107.806,392.284,104.217,388.696,104.217,384.267z"/>
<g>
</g>
<g>
</g>
<g>
</g>
<g>
</g>
<g>
</g>
<g>
</g>
<g>
</g>
<g>
</g>
<g>
</g>
<g>
</g>
<g>
</g>
<g>
</g>
<g>
</g>
<g>
</g>
<g>
</g>
</svg>
