<?xml version="1.0" encoding="iso-8859-1"?>
<!-- Generator: Adobe Illustrator 19.0.0, SVG Export Plug-In . SVG Version: 6.00 Build 0)  -->
<svg version="1.1" id="Layer_1" xmlns="http://www.w3.org/2000/svg" xmlns:xlink="http://www.w3.org/1999/xlink" x="0px" y="0px"
	 viewBox="0 0 512 512" style="enable-background:new 0 0 512 512;" xml:space="preserve">
<g>
	<path style="fill:#FF3501;" d="M184.91,261.995c-4.208-2.406-5.954-7.553-3.705-11.846l14.044-26.83
		c2.247-4.296,7.552-5.953,11.846-3.705c4.295,2.248,5.954,7.553,3.705,11.846l-14.044,26.83
		C195.189,261.284,190.185,265.011,184.91,261.995z"/>
	<path style="fill:#FF3501;" d="M222.953,261.995c-4.33-2.178-5.954-7.552-3.706-11.846l14.043-26.83
		c2.248-4.296,7.553-5.953,11.848-3.705c4.294,2.248,5.954,7.552,3.706,11.846l-14.043,26.83
		C233.232,261.284,228.953,265.011,222.953,261.995z"/>
	<path style="fill:#FF3501;" d="M261.474,261.995c-4.526-1.737-5.954-7.553-3.705-11.846l14.044-26.83
		c2.247-4.296,7.552-5.953,11.846-3.705c4.295,2.248,5.954,7.553,3.705,11.846l-14.044,26.83
		C271.753,261.284,267.093,264.151,261.474,261.995z"/>
</g>
<path style="fill:#891C00;" d="M70.303,316.228c-16.543,0-33.105-6.164-45.9-18.554c-31.809-30.803-32.629-81.741-1.827-113.55
	c26.642-27.512,67.194-37.04,103.315-24.272c4.57,1.615,6.966,6.63,5.35,11.201c-1.615,4.571-6.63,6.969-11.202,5.35
	c-29.665-10.487-62.974-2.661-84.853,19.933c-24.068,24.856-23.429,64.659,1.427,88.728c19.187,18.58,49.918,18.087,68.5-1.102
	c14.191-14.655,13.814-38.126-0.842-52.317c-3.483-3.372-3.573-8.929-0.2-12.411c3.373-3.482,8.929-3.572,12.412-0.2
	c21.609,20.925,22.166,55.53,1.241,77.139C104.801,309.519,87.561,316.228,70.303,316.228z"/>
<g>
	<path style="fill:#FFBCAB;" d="M364.651,108.65H261.983v128.675h102.668c29.121,0,53.725,27.296,53.725,59.606
		c0,32.31-24.604,59.606-53.725,59.606h-69.466v46.812h69.465C445.693,403.35,512,337.042,512,256.001l0,0
		C512.001,174.956,445.693,108.65,364.651,108.65z"/>
	<path style="fill:#FFBCAB;" d="M510.814,237.325c-9.25-72.311-71.443-128.675-146.163-128.675h-45.898l5.252,128.675h40.647
		c29.121,0,53.725,27.296,53.725,59.606C497.67,297.399,510.806,237.358,510.814,237.325z"/>
</g>
<g>
	<path style="fill:#FF9478;" d="M368.53,237.505c66.275-44.071,40.475-121.984,40.474-121.986
		c-14.013-4.457-28.913-6.869-44.352-6.869H261.983v128.675h102.668C365.955,237.324,367.246,237.398,368.53,237.505z"/>
	<path style="fill:#FF9478;" d="M407.372,261.291c6.874,10.02,11.004,22.407,11.004,35.639c0,31.644-23.603,58.461-51.934,59.554
		c-0.575,0.03-1.163,0.052-1.785,0.052c-0.002,0-0.004,0-0.006,0c0.003,0.003,37.31,33.893,91.415,14.807
		C490.087,344.291,512,302.582,512,255.999l0,0c0-12.907-1.689-25.438-4.844-37.389L407.372,261.291z"/>
</g>
<g>
	<path style="fill:#FF7956;" d="M424.646,264.152c-0.082-32.309-24.604-59.606-53.726-59.606H254.019l7.965,32.778h102.668
		c29.121,0,53.725,27.296,53.725,59.606c0,9.579-2.177,18.71-5.978,26.827h0.005C412.403,323.757,424.748,304.588,424.646,264.152z"
		/>
	<path style="fill:#FF7956;" d="M370.921,204.546H254.019l7.965,32.778h102.668c1.304,0,2.595,0.073,3.878,0.181
		c11.73-7.8,20.565-16.664,27.18-25.966C388.248,207.096,379.801,204.546,370.921,204.546z"/>
</g>
<path style="fill:#FF9478;" d="M511.587,267.004L511.587,267.004c-18.758,59.837-74.853,103.567-140.667,103.567h-75.735v32.778
	h69.465C441.992,403.349,505.91,342.959,511.587,267.004z"/>
<path style="fill:#FF7956;" d="M386.669,369.727c16.19,6.845,40.383,11.858,69.415,1.618c31.305-24.893,52.342-62.2,55.504-104.29
	C494.33,322.036,445.544,363.404,386.669,369.727z"/>
<path style="fill:#FF6243;" d="M227.31,324.353c-0.03-0.008-18.542-5.25-18.542,15.506v47.983c0,8.564,6.943,15.507,15.507,15.507
	h116.348v-46.812L227.31,324.353z"/>
<g>
	<path style="fill:#CD2A00;" d="M256.338,346.57l-46.891-12.838c-0.428,1.74-0.679,3.757-0.679,6.129v11.886l42.932,11.756
		c0.776,0.212,8.296,2.216,10.784-6.147C263.866,352.707,261.012,347.85,256.338,346.57z"/>
	<path style="fill:#CD2A00;" d="M254.019,371.918h-45.251v15.924c0,0.551,0.031,1.094,0.087,1.63h45.164
		c4.847,0,8.776-3.93,8.776-8.777S258.866,371.918,254.019,371.918z"/>
</g>
<path style="fill:#FF9478;" d="M424.646,264.152c-0.056-22.435-11.903-42.442-28.884-52.582
	c-9.943,14.779-26.648,25.829-27.232,25.935c18.905,1.582,35.438,14.595,43.876,32.648L424.646,264.152z"/>
<path style="fill:#FF7956;" d="M407.373,261.292c6.873,10.02,11.003,22.407,11.003,35.638c0,9.579-2.177,18.71-5.978,26.827h0.005
	c0,0,12.344-19.168,12.242-59.604c-0.008-3.359-0.296-6.66-0.81-9.887l-16.464,7.026
	C407.373,261.291,407.373,261.292,407.373,261.292z"/>
<path style="fill:#FF6243;" d="M261.983,108.65c35.532,0,40.015,28.805,40.015,64.337s-4.482,64.337-40.015,64.337
	S78.371,225.166,78.371,172.987C78.371,121.821,226.451,108.65,261.983,108.65z"/>
<path style="fill:#FF5023;" d="M97.303,144.34c-11.675,7.869-18.932,17.327-18.932,28.647c0,52.179,148.08,64.337,183.612,64.337
	c25.817,0,35.235-15.213,38.46-37.158c-5.207,2.772-11.715,4.308-19.877,4.308C246.01,204.474,105.021,192.969,97.303,144.34z"/>
<path style="fill:#2D2D30;" d="M154.515,153.314c-5.665,0-11.184-2.289-15.158-6.293c-4.005-3.976-6.293-9.525-6.293-15.158
	c0-5.635,2.287-11.184,6.293-15.16c3.975-4.004,9.494-6.292,15.158-6.292c5.661,0,11.184,2.287,15.158,6.292
	c4.005,3.976,6.293,9.525,6.293,15.16c0,5.633-2.287,11.182-6.293,15.158C165.698,151.024,160.176,153.314,154.515,153.314z"/>
<path style="fill:#CD2A00;" d="M105.763,375.347c-13.781,0-27.378-3.612-39.633-10.686c-22.493-12.983-38.585-33.949-45.311-59.035
	s-3.28-51.29,9.703-73.784c23.272-40.32,68.263-63.55,114.632-59.182c4.826,0.455,8.37,4.736,7.914,9.562
	c-0.455,4.826-4.719,8.371-9.561,7.915c-39.555-3.731-77.93,16.089-97.78,50.481c-10.64,18.433-13.464,39.905-7.952,60.463
	c5.511,20.557,18.698,37.738,37.131,48.376c14.342,8.277,31.048,10.474,47.039,6.186c15.993-4.287,29.359-14.547,37.636-28.887
	c6.388-11.066,8.084-23.957,4.774-36.299c-3.308-12.342-11.225-22.655-22.292-29.043c-4.199-2.423-5.637-7.791-3.214-11.99
	c2.423-4.199,7.789-5.638,11.991-3.214c15.128,8.73,25.949,22.831,30.471,39.701s2.205,34.492-6.527,49.62
	c-10.62,18.401-27.771,31.566-48.293,37.067C119.635,374.438,112.675,375.347,105.763,375.347z"/>
<g>
	<path style="fill:#FF9478;" d="M450.516,190.329c-4.774-6.221-10.244-11.943-16.255-17.006c-3.31-2.789-3.732-7.733-0.944-11.043
		c2.787-3.31,7.733-3.733,11.042-0.944c6.875,5.791,13.129,12.335,18.589,19.45c2.635,3.434,2.093,8.494-1.445,10.989
		C456.619,195.219,452.059,192.339,450.516,190.329z"/>
	<path style="fill:#FF9478;" d="M463.114,211.272c-0.458-1.004-0.932-2.001-1.418-2.989c-1.914-3.882-0.319-8.581,3.563-10.494
		c3.884-1.913,8.581-0.318,10.494,3.564c0.556,1.127,1.097,2.265,1.621,3.412c1.797,3.937-0.073,8.318-3.877,10.384
		C469.47,217.336,464.43,214.155,463.114,211.272z"/>
</g>
<g>
</g>
<g>
</g>
<g>
</g>
<g>
</g>
<g>
</g>
<g>
</g>
<g>
</g>
<g>
</g>
<g>
</g>
<g>
</g>
<g>
</g>
<g>
</g>
<g>
</g>
<g>
</g>
<g>
</g>
</svg>
