<?xml version="1.0" encoding="iso-8859-1"?>
<!-- Generator: Adobe Illustrator 19.0.0, SVG Export Plug-In . SVG Version: 6.00 Build 0)  -->
<svg version="1.1" id="Layer_1" xmlns="http://www.w3.org/2000/svg" xmlns:xlink="http://www.w3.org/1999/xlink" x="0px" y="0px"
	 viewBox="0 0 512.001 512.001" style="enable-background:new 0 0 512.001 512.001;" xml:space="preserve">
<path style="fill:#DCE0E2;" d="M430.158,68.369l-18.584-15.691C368.455,19.637,314.521,0.001,256.002,0.001
	C114.615,0.001,0,114.615,0,256s114.615,256.001,256.002,256.001c141.385,0,255.999-114.615,255.999-256.001
	C512,181.881,480.501,115.118,430.158,68.369z"/>
<path style="fill:#F2B864;" d="M374.761,355.249c0-14.379,11.656-26.034,26.032-26.034c5.737,0,11.038,1.859,15.339,5.003
	c11.321-23.217,17.679-49.297,17.679-76.865c0-97.003-78.637-175.636-175.639-175.636c-33.302,0-64.437,9.269-90.97,25.367
	c1.644,4.242,2.555,8.85,2.555,13.672c0,20.908-16.949,37.857-37.857,37.857v-23.326c-12.679,13.111-23.33,28.191-31.46,44.737
	c15.409-2.057,31.13,5.572,38.664,20.184c9.579,18.583,2.279,41.415-16.307,50.994l-28.907-56.079
	c-2.782,7.339-5.096,14.908-6.886,22.679c11.921,6.376,20.031,18.938,20.031,33.4c0,15.329-9.116,28.52-22.218,34.474
	c13.545,83.532,85.994,147.316,173.353,147.316c50.722,0,96.412-21.509,128.474-55.892
	C379.495,372.457,374.761,364.408,374.761,355.249z M419.841,296.52c0,14.38-11.654,26.035-26.034,26.035
	c-14.378,0-26.034-11.655-26.034-26.035c0-14.377,11.656-26.032,26.034-26.032C408.187,270.487,419.841,282.144,419.841,296.52z
	 M265.162,372.102c-1.053,1.991-2.196,3.922-3.423,5.797v0.002c-13.124,20.101-35.805,33.394-61.602,33.394
	c-40.611,0-73.531-32.92-73.531-73.534c0-16.409,5.383-31.557,14.469-43.787h-0.002c0,0,25.986-44.792,32.249-88.782
	c0.1-5.123,0.536-10.16,1.324-15.081c0.002-0.026,0.004-0.05,0.004-0.071c0.066-2.756,0.554-5.047,1.375-6.952
	c11.004-48.11,54.035-84.012,105.478-84.012c59.777,0,108.237,48.459,108.237,108.235c0,44.444-26.798,82.611-65.105,99.277
	C290.814,334.398,272.25,360.788,265.162,372.102z M343.995,364.296c-14.378,0-26.034-11.655-26.034-26.034
	c0-14.378,11.656-26.032,26.034-26.032c14.378,0,26.034,11.654,26.034,26.032C370.029,352.641,358.373,364.296,343.995,364.296z"/>
<path style="fill:#8C5549;" d="M389.74,207.311c0-59.776-48.46-108.235-108.237-108.235c-51.443,0-94.474,35.903-105.478,84.012
	c-0.822,1.905-1.311,4.197-1.375,6.952c0,0.021-0.002,0.045-0.004,0.071c-0.787,4.921-1.224,9.958-1.324,15.081
	c-6.262,43.99-32.249,88.782-32.249,88.782h0.002c-9.086,12.229-14.469,27.377-14.469,43.787c0,40.614,32.92,73.534,73.531,73.534
	c25.796,0,48.478-13.294,61.602-33.394l0,0v-0.002c1.228-1.877,2.37-3.807,3.423-5.797c7.089-11.313,25.653-37.703,59.473-65.514
	C362.942,289.922,389.74,251.756,389.74,207.311z"/>
<g>
	<circle style="fill:#4BAA43;" cx="343.992" cy="338.265" r="26.034"/>
	<circle style="fill:#4BAA43;" cx="393.805" cy="296.524" r="26.034"/>
	<circle style="fill:#4BAA43;" cx="400.794" cy="355.246" r="26.034"/>
</g>
<g>
	<path style="opacity:0.15;fill:#202020;enable-background:new    ;" d="M336.94,338.262c0-11.029,6.861-20.447,16.545-24.241
		c-2.942-1.152-6.14-1.791-9.489-1.791c-14.378,0-26.034,11.654-26.034,26.032c0,14.379,11.656,26.034,26.034,26.034
		c3.349,0,6.548-0.639,9.489-1.792C343.801,358.712,336.94,349.291,336.94,338.262z"/>
	<path style="opacity:0.15;fill:#202020;enable-background:new    ;" d="M386.752,296.52c0-11.028,6.862-20.448,16.545-24.24
		c-2.941-1.153-6.139-1.792-9.489-1.792c-14.378,0-26.034,11.655-26.034,26.032c0,14.38,11.656,26.035,26.034,26.035
		c3.35,0,6.549-0.64,9.489-1.791C393.613,316.97,386.752,307.549,386.752,296.52z"/>
	<path style="opacity:0.15;fill:#202020;enable-background:new    ;" d="M393.739,355.249c0-11.03,6.862-20.449,16.545-24.243
		c-2.942-1.151-6.14-1.791-9.492-1.791c-14.376,0-26.032,11.655-26.032,26.034c0,14.377,11.656,26.033,26.032,26.033
		c3.351,0,6.55-0.639,9.492-1.792C400.602,375.696,393.739,366.277,393.739,355.249z"/>
</g>
<g>
	<path style="fill:#A5665B;" d="M208.549,174.151c-2.968,0-5.843-1.582-7.364-4.374c-2.209-4.063-0.707-9.145,3.356-11.356
		l77.899-42.369c4.061-2.21,9.145-0.708,11.357,3.356c2.209,4.063,0.707,9.145-3.356,11.356l-77.899,42.369
		C211.271,173.824,209.901,174.151,208.549,174.151z"/>
	<path style="fill:#A5665B;" d="M195.605,223.661c-2.97,0-5.845-1.582-7.364-4.373c-2.209-4.064-0.708-9.147,3.355-11.357
		l92.464-50.292c4.061-2.21,9.145-0.708,11.356,3.355c2.209,4.064,0.708,9.147-3.355,11.357l-92.463,50.292
		C198.326,223.333,196.956,223.661,195.605,223.661z"/>
	<path style="fill:#A5665B;" d="M310.973,160.911c-2.97,0-5.845-1.582-7.364-4.373c-2.209-4.063-0.708-9.147,3.355-11.357
		l23.239-12.64c4.061-2.209,9.145-0.708,11.356,3.355c2.209,4.063,0.708,9.147-3.355,11.357l-23.239,12.64
		C313.693,160.584,312.323,160.911,310.973,160.911z"/>
	<path style="fill:#A5665B;" d="M177.185,276.146c-2.97,0-5.845-1.582-7.364-4.373c-2.209-4.063-0.708-9.147,3.355-11.357
		l76.36-41.533c4.06-2.21,9.147-0.708,11.356,3.355c2.209,4.063,0.708,9.147-3.355,11.357l-76.361,41.533
		C179.905,275.819,178.536,276.146,177.185,276.146z"/>
	<path style="fill:#A5665B;" d="M276.138,222.326c-2.97,0-5.845-1.582-7.364-4.373c-2.209-4.063-0.709-9.147,3.355-11.357
		l79.708-43.355c4.061-2.21,9.145-0.708,11.356,3.355c2.209,4.063,0.708,9.147-3.355,11.357l-79.708,43.355
		C278.859,221.999,277.488,222.326,276.138,222.326z"/>
	<path style="fill:#A5665B;" d="M150.838,332.942c-2.97,0-5.845-1.582-7.364-4.374c-2.209-4.063-0.708-9.145,3.355-11.356
		l49.502-26.923c4.063-2.21,9.147-0.708,11.356,3.356c2.209,4.063,0.708,9.145-3.355,11.356l-49.502,26.923
		C153.56,332.615,152.189,332.942,150.838,332.942z"/>
	<path style="fill:#A5665B;" d="M221.707,294.398c-2.97,0-5.845-1.582-7.364-4.374c-2.209-4.063-0.708-9.145,3.355-11.356
		l144.723-78.713c4.061-2.21,9.145-0.709,11.357,3.356c2.209,4.063,0.707,9.145-3.356,11.356L225.7,293.38
		C224.428,294.071,223.057,294.398,221.707,294.398z"/>
	<path style="fill:#A5665B;" d="M155.875,372.67c-2.968,0-5.843-1.582-7.364-4.373c-2.208-4.064-0.707-9.147,3.356-11.357
		l132.823-72.242c4.061-2.21,9.145-0.708,11.357,3.355c2.208,4.064,0.707,9.147-3.356,11.357l-132.823,72.242
		C158.598,372.343,157.227,372.67,155.875,372.67z"/>
	<path style="fill:#A5665B;" d="M309.518,289.105c-2.97,0-5.845-1.582-7.364-4.374c-2.209-4.063-0.708-9.145,3.354-11.356
		l34.181-18.59c4.061-2.21,9.145-0.709,11.357,3.356c2.209,4.063,0.707,9.145-3.356,11.356l-34.18,18.59
		C312.24,288.778,310.869,289.105,309.518,289.105z"/>
	<path style="fill:#A5665B;" d="M195.605,395.005c-2.97,0-5.845-1.582-7.364-4.374c-2.209-4.063-0.708-9.145,3.355-11.356
		l49.286-26.807c4.061-2.21,9.145-0.709,11.357,3.356c2.209,4.063,0.707,9.145-3.356,11.356l-49.286,26.807
		C198.326,394.677,196.956,395.005,195.605,395.005z"/>
</g>
<g>
	<path style="fill:#F99B46;" d="M131.901,80.105c-1.542,0-2.791,1.249-2.791,2.791v75.714c0,1.542,1.249,2.791,2.791,2.791
		c22.413,0,40.648-18.235,40.648-40.648C172.55,98.34,154.315,80.105,131.901,80.105z"/>
	<path style="fill:#F99B46;" d="M105.423,176.894c-6.511,0-12.767,1.522-18.592,4.525c-0.659,0.339-1.155,0.927-1.38,1.631
		c-0.224,0.706-0.162,1.47,0.178,2.129l34.691,67.3c0.496,0.96,1.47,1.513,2.483,1.513c0.432,0,0.867-0.1,1.278-0.31
		c9.651-4.976,16.787-13.411,20.095-23.752c3.306-10.341,2.388-21.351-2.587-31.001
		C134.579,185.337,120.723,176.894,105.423,176.894z"/>
	<path style="fill:#F99B46;" d="M69.179,210.552c-1.542,0-2.791,1.249-2.791,2.791v75.714c0,1.542,1.249,2.791,2.791,2.791
		c22.415,0,40.65-18.235,40.65-40.648C109.829,228.787,91.594,210.552,69.179,210.552z"/>
</g>
<path style="opacity:0.15;fill:#202020;enable-background:new    ;" d="M146.125,337.762c0-16.409,5.383-31.557,14.469-43.787
	h-0.002c0,0,25.986-44.792,32.249-88.782c0.1-5.123,0.536-10.16,1.324-15.081c0.002-0.026,0.004-0.05,0.004-0.071
	c0.066-2.756,0.554-5.047,1.375-6.952c10.301-45.026,48.654-79.355,95.7-83.571c-3.21-0.286-6.456-0.441-9.74-0.441
	c-51.443,0-94.474,35.903-105.478,84.012c-0.822,1.905-1.311,4.197-1.375,6.952c0,0.021-0.002,0.045-0.004,0.071
	c-0.787,4.921-1.224,9.958-1.324,15.081c-6.262,43.99-32.249,88.782-32.249,88.782h0.002c-9.086,12.229-14.469,27.377-14.469,43.787
	c0,40.614,32.92,73.534,73.531,73.534c3.334,0,6.612-0.227,9.828-0.656C173.937,405.893,146.125,375.087,146.125,337.762z"/>
<g>
</g>
<g>
</g>
<g>
</g>
<g>
</g>
<g>
</g>
<g>
</g>
<g>
</g>
<g>
</g>
<g>
</g>
<g>
</g>
<g>
</g>
<g>
</g>
<g>
</g>
<g>
</g>
<g>
</g>
</svg>
