<?xml version="1.0" encoding="iso-8859-1"?>
<!-- Generator: Adobe Illustrator 19.0.0, SVG Export Plug-In . SVG Version: 6.00 Build 0)  -->
<svg version="1.1" id="Layer_1" xmlns="http://www.w3.org/2000/svg" xmlns:xlink="http://www.w3.org/1999/xlink" x="0px" y="0px"
	 viewBox="0 0 504.12 504.12" style="enable-background:new 0 0 504.12 504.12;" xml:space="preserve">
<path style="fill:#ED9370;" d="M503.925,295.811c0.26-3.033,0.26-6.002,0-8.925v-90.695L0.566,221.501l-0.063,92.585
	c-0.228,2.048-0.189,4.277,0.165,6.727c5.994,41.078,255.866,69.892,389.356,50.412c80.289-11.705,109.97-44.032,113.695-73.381
	l0.205-0.016V295.811z"/>
<path style="fill:#D36F50;" d="M0.534,286.02c0.047,0.496,0.063,0.977,0.134,1.481c5.994,41.078,255.866,69.892,389.356,50.412
	c80.289-11.705,109.97-44.032,113.695-73.381l0.205-0.016V262.5v-8.925v-33.8L0.566,245.084L0.534,286.02z"/>
<path style="fill:#ED9370;" d="M0.534,262.437c0.047,0.488,0.063,0.953,0.134,1.481c5.994,41.078,255.866,69.892,389.356,50.412
	c80.289-11.705,109.97-44.032,113.695-73.381l0.205-0.016v-2.016v-8.925v-33.8L0.566,221.501L0.534,262.437z"/>
<path style="fill:#A51E17;" d="M483.728,155.059c33.115,25.017,39.44,101.463-94.05,120.942
	c-133.482,19.48-383.362-9.342-389.356-50.412c-6.002-41.078,72.381-23.954,205.887-43.449
	C339.691,162.652,392.088,85.765,483.728,155.059z"/>
<path style="fill:#CE2C24;" d="M483.728,155.059c-91.64-69.293-144.037,7.601-277.52,27.081
	C102.336,197.303,31.845,190.3,8.49,205.794c44.709,34.721,260.49,56.588,381.188,38.983
	c72.042-10.508,103.306-37.612,111.695-64.26C498.056,170.056,491.692,161.069,483.728,155.059z"/>
<ellipse style="fill:#ED9370;" cx="343.826" cy="192.899" rx="37.983" ry="11.445"/>
<ellipse style="fill:#EFBEAF;" cx="343.117" cy="191.497" rx="18.416" ry="5.553"/>
<g>
	<ellipse style="fill:#A51E17;" cx="181.672" cy="215.79" rx="12.493" ry="4.86"/>
	<ellipse style="fill:#A51E17;" cx="405.739" cy="175.042" rx="12.485" ry="4.844"/>
	<ellipse style="fill:#A51E17;" cx="236.566" cy="208.685" rx="7.546" ry="2.938"/>
	<ellipse style="fill:#A51E17;" cx="311.043" cy="171.238" rx="6.294" ry="2.45"/>
	<ellipse style="fill:#A51E17;" cx="357.359" cy="223.95" rx="7.546" ry="2.938"/>
</g>
<g>
	<path style="fill:#EA7373;" d="M439.058,146.071c0,6.309-17.006,0.339-38.857,0.339c-21.851,0-40.235,5.971-40.235-0.339
		c0-6.325,17.699-11.445,39.542-11.445C421.359,134.626,439.058,139.746,439.058,146.071z"/>
	<path style="fill:#EA7373;" d="M88.59,209.283c0.701,6.294-16.872,2.229-38.573,4.663c-21.701,2.434-39.322,10.398-40.031,4.12
		c-0.701-6.278,16.321-13.336,38.03-15.77C69.725,199.886,87.889,203.005,88.59,209.283z"/>
	<circle style="fill:#EA7373;" cx="449.141" cy="151.624" r="3.119"/>
	<circle style="fill:#EA7373;" cx="462.61" cy="157.516" r="3.474"/>
</g>
<g>
</g>
<g>
</g>
<g>
</g>
<g>
</g>
<g>
</g>
<g>
</g>
<g>
</g>
<g>
</g>
<g>
</g>
<g>
</g>
<g>
</g>
<g>
</g>
<g>
</g>
<g>
</g>
<g>
</g>
</svg>
