<?xml version="1.0" encoding="iso-8859-1"?>
<!-- Generator: Adobe Illustrator 19.0.0, SVG Export Plug-In . SVG Version: 6.00 Build 0)  -->
<svg version="1.1" id="Layer_1" xmlns="http://www.w3.org/2000/svg" xmlns:xlink="http://www.w3.org/1999/xlink" x="0px" y="0px"
	 viewBox="0 0 512.002 512.002" style="enable-background:new 0 0 512.002 512.002;" xml:space="preserve">
<g>
	<g>
		<path style="fill:#95A7AF;" d="M194.208,145.781c-2.595-3.478-5.667-6.647-9.26-9.269c-11.061-8.095-17.223-21.283-17.223-34.993
			V88.278H114.76v13.241c0,13.709-6.162,26.898-17.223,34.993c-11.379,8.316-18.088,21.557-18.088,35.628v322.207
			c0,9.746,7.901,17.655,17.655,17.655h97.103V145.781z"/>
		<path style="fill:#95A7AF;" d="M317.794,512h97.103c9.755,0,17.655-7.91,17.655-17.655V172.138
			c0-14.071-6.709-27.313-18.088-35.628c-11.061-8.095-17.223-21.283-17.223-34.993V88.276h-52.965v13.241
			c0,13.709-6.162,26.898-17.223,34.993c-3.593,2.631-6.665,5.791-9.26,9.269V512z"/>
	</g>
	<g>
		<polygon style="fill:#AEC3CE;" points="79.449,317.793 194.207,317.793 194.207,194.207 79.449,194.207 		"/>
		<polygon style="fill:#AEC3CE;" points="317.794,317.793 432.552,317.793 432.552,194.207 317.794,194.207 		"/>
	</g>
	<path style="fill:#DAE7EF;" d="M299.709,101.199c-11.061-8.095-17.223-21.283-17.223-34.993V52.965h-52.966v13.241
		c0,13.709-6.162,26.898-17.223,34.993c-11.379,8.316-18.088,21.557-18.088,35.628v375.172h123.586V136.827
		C317.797,122.756,311.088,109.514,299.709,101.199"/>
	<polygon style="fill:#AEC3CE;" points="194.207,282.483 317.794,282.483 317.794,158.897 194.207,158.897 	"/>
	<g>
		<path style="fill:#DAE7EF;" d="M264.829,211.862h-17.655c-4.882,0-8.828-3.946-8.828-8.828s3.946-8.828,8.828-8.828h17.655
			c4.882,0,8.828,3.946,8.828,8.828S269.711,211.862,264.829,211.862"/>
		<path style="fill:#DAE7EF;" d="M282.484,247.172h-52.965c-4.882,0-8.828-3.946-8.828-8.828c0-4.882,3.946-8.828,8.828-8.828
			h52.965c4.882,0,8.828,3.946,8.828,8.828C291.312,243.226,287.366,247.172,282.484,247.172"/>
	</g>
	<path style="fill:#AEC3CE;" d="M291.312,52.966h-70.621c-4.873,0-8.828-3.955-8.828-8.828V8.828c0-4.873,3.955-8.828,8.828-8.828
		h70.621c4.873,0,8.828,3.955,8.828,8.828v35.31C300.139,49.011,296.185,52.966,291.312,52.966"/>
	<g>
		<path style="fill:#DAE7EF;" d="M150.07,247.172h-17.655c-4.882,0-8.828-3.946-8.828-8.828c0-4.882,3.946-8.828,8.828-8.828h17.655
			c4.882,0,8.828,3.946,8.828,8.828C158.898,243.226,154.952,247.172,150.07,247.172"/>
		<path style="fill:#DAE7EF;" d="M167.725,282.483H114.76c-4.882,0-8.828-3.946-8.828-8.828s3.946-8.828,8.828-8.828h52.966
			c4.882,0,8.828,3.946,8.828,8.828S172.607,282.483,167.725,282.483"/>
	</g>
	<path style="fill:#AEC3CE;" d="M176.553,88.276h-70.621c-4.873,0-8.828-3.955-8.828-8.828v-35.31c0-4.873,3.955-8.828,8.828-8.828
		h70.621c4.873,0,8.828,3.955,8.828,8.828v35.31C185.381,84.321,181.426,88.276,176.553,88.276"/>
	<g>
		<path style="fill:#DAE7EF;" d="M379.588,247.172h-17.655c-4.882,0-8.828-3.946-8.828-8.828c0-4.882,3.946-8.828,8.828-8.828
			h17.655c4.882,0,8.828,3.946,8.828,8.828C388.415,243.226,384.469,247.172,379.588,247.172"/>
		<path style="fill:#DAE7EF;" d="M397.243,282.483h-52.965c-4.882,0-8.828-3.946-8.828-8.828s3.946-8.828,8.828-8.828h52.965
			c4.882,0,8.828,3.946,8.828,8.828S402.124,282.483,397.243,282.483"/>
	</g>
	<g>
		<path style="fill:#AEC3CE;" d="M406.07,88.276H335.45c-4.873,0-8.828-3.955-8.828-8.828v-35.31c0-4.873,3.955-8.828,8.828-8.828
			h70.621c4.873,0,8.828,3.955,8.828,8.828v35.31C414.898,84.321,410.943,88.276,406.07,88.276"/>
		<path style="fill:#AEC3CE;" d="M141.243,494.345h-17.655c-14.601,0-26.483-11.882-26.483-26.483v-17.655
			c0-4.882,3.946-8.828,8.828-8.828s8.828,3.946,8.828,8.828v17.655c0,4.873,3.955,8.828,8.828,8.828h17.655
			c4.882,0,8.828,3.946,8.828,8.828C150.07,490.399,146.124,494.345,141.243,494.345"/>
		<path style="fill:#AEC3CE;" d="M256.001,494.345h-17.655c-14.601,0-26.483-11.882-26.483-26.483v-17.655
			c0-4.882,3.946-8.828,8.828-8.828s8.828,3.946,8.828,8.828v17.655c0,4.873,3.955,8.828,8.828,8.828h17.655
			c4.882,0,8.828,3.946,8.828,8.828C264.829,490.399,260.883,494.345,256.001,494.345"/>
		<path style="fill:#AEC3CE;" d="M379.588,494.345h-17.655c-14.601,0-26.483-11.882-26.483-26.483v-17.655
			c0-4.882,3.946-8.828,8.828-8.828s8.828,3.946,8.828,8.828v17.655c0,4.873,3.955,8.828,8.828,8.828h17.655
			c4.882,0,8.828,3.946,8.828,8.828C388.415,490.399,384.469,494.345,379.588,494.345"/>
	</g>
</g>
<g>
</g>
<g>
</g>
<g>
</g>
<g>
</g>
<g>
</g>
<g>
</g>
<g>
</g>
<g>
</g>
<g>
</g>
<g>
</g>
<g>
</g>
<g>
</g>
<g>
</g>
<g>
</g>
<g>
</g>
</svg>
